<svg width="865" height="238" xmlns="http://www.w3.org/2000/svg">

 <g>
  <title>Layer 1</title>
  <g id="logo_Copy" stroke-linecap="round">
   <path id="svg_1" stroke-linejoin="round" stroke-width="14.1" stroke="rgb(211, 91, 166)" fill="none" d="m83.86,10.12c0,0 0,-0.59 0,-0.59c0.45,15.05 2.01,51.77 2.17,58.22c0.17,16.64 0.39,40.75 0.44,48.23c0.01,8.82 0.02,19.79 0.01,21.95"/>
   <path id="svg_2" stroke-linejoin="round" stroke-width="14.1" stroke="rgb(211, 91, 166)" fill="none" d="m87.14,119.57c-1.55,0.25 -2.38,0.71 -3.56,2.22c-7.44,9.21 -50.19,55.28 -62.54,69.59"/>
   <path id="svg_3" stroke-linejoin="round" stroke-width="14.1" stroke="rgb(211, 91, 166)" fill="none" d="m20.72,195.52c-0.08,-0.7 -0.17,-1.4 -0.26,-2.1c-0.09,-0.7 -0.18,-1.4 -0.27,-2.11"/>
   <path id="svg_4" stroke-linejoin="round" stroke-width="14.1" stroke="rgb(211, 91, 166)" fill="none" d="m86.48,104.11c-0.15,7.54 -0.4,21.57 -0.51,28.04c-0.06,15.36 0,48.36 0.46,65.19c0.35,7.14 1.49,21 1.88,25.67"/>
   <path id="svg_5" stroke-linejoin="round" stroke-width="14.1" stroke="rgb(211, 91, 166)" fill="none" d="m84.52,116.92c-0.09,0.02 0.2,0.79 0.86,2.18c2.34,4.82 8.59,10.26 16.27,16.17c15.28,11.67 52.17,43.12 55.51,45.99"/>
   <path id="svg_6" stroke-linejoin="round" stroke-width="14.1" stroke="rgb(183, 99, 73)" fill="none" d="m201.42,42.7c1.6,0.53 11.61,6.7 16.9,11.37c4.36,3.88 14.22,14.86 17.96,20.3c2.38,3.46 11.72,18.8 15.69,25.46c3.71,6.73 11.19,20.63 13.49,26.55c1.81,4.71 6.41,21.82 8.27,29.07c1.85,7.61 5.32,23.43 6.11,29.94c0.44,3.7 1.46,35.48 1.7,40.69c1.52,-16.18 4.76,-49.2 7.05,-61.05c2.4,-10.87 5.41,-22.1 8.16,-29.14c2.05,-5.19 8.61,-19.07 12.94,-26.57c5.58,-9.4 12.77,-20.08 16.74,-25c4.7,-5.81 12.95,-13.64 21.16,-20.55c7.63,-6.26 19.6,-14.52 26.61,-17.54c2.76,-1.15 6.41,-2.66 7.29,-3.03"/>
   <path id="svg_7" stroke-linejoin="round" stroke-width="14.1" stroke="rgb(183, 99, 73)" fill="none" d="m300.99,53.27c0.69,-0.46 1.37,-0.93 2.05,-1.39c0,0 1.95,-2.41 1.95,-2.41c1.35,-3.13 2.53,-11.73 2.56,-11.92c0.19,-1.26 0.52,-3.92 0.3,-5c-0.3,-1.37 -2.13,-5.49 -3.12,-6.96c-2.14,-3.06 -8.29,-7.21 -12.56,-8.91c-4,-1.55 -10.74,-2.7 -13.95,-2.18c-3.17,0.57 -8.78,3.81 -10.95,6.15c-2.03,2.25 -4.93,7.46 -5.85,10.39c-1,3.39 -0.8,8.83 0.82,12.34c0.97,2 4.84,6.49 8,8.79c3.83,2.75 9.6,5.74 12.63,6.03c2.61,0.21 10.11,-0.01 11.8,-0.9c1.01,-0.56 4.78,-3.01 6.32,-4.03z"/>
   <path id="svg_8" stroke-linejoin="round" stroke-width="14.1" stroke="rgb(64, 172, 47)" fill="none" d="m407.7,199.68c0,0 -1.33,2.77 -1.33,2.77c-1.55,-1.78 -2.9,-14.76 -2.63,-22.41c0.24,-6.42 2.5,-21.69 4.09,-27.79c2.04,-7.75 7.9,-21.12 11.73,-25.73c2.46,-2.9 8.09,-6.68 11.29,-7.37c3.56,-0.69 9.78,-0.1 13.85,1.28c3.41,1.19 10.08,4.75 12.59,6.42c4.77,3.23 14.94,14.65 18.38,19.92c2.29,3.51 12.37,20.41 16.33,27.04c3.73,6 12.77,16.67 17.46,19.8c3.11,2.02 8.59,4.71 11.82,5.53c3.48,0.84 10.15,1.23 13.52,0.8c3.52,-0.48 10.15,-2.14 13.41,-3.42c4.87,-1.94 17.66,-9.67 23.53,-14.08c6.83,-5.16 17.51,-15.14 22.19,-21.2c4.3,-5.63 10.95,-19.58 13.43,-27.38c2.8,-8.88 4.86,-18.89 5.02,-26.47c0.04,-3.52 -1.36,-10.59 -2.9,-14.52c-1.39,-3.49 -4.78,-9.29 -5.93,-10.99c-2.96,-4.29 -14.9,-14.28 -19.03,-17.14c-5.99,-4.11 -14.29,-7.84 -17.34,-8.86"/>
   <path id="svg_9" stroke-linejoin="round" stroke-width="14.1" stroke="rgb(64, 172, 47)" fill="none" d="m465.48,127.64c0,0 -2.79,0.45 -2.79,0.45c3.22,-1.1 7.21,-3.79 8.82,-6.31c1.44,-2.36 3.88,-10.85 4.21,-11.86c1,-3.08 4.03,-8.4 6.23,-11.08c2.2,-2.63 8.03,-7.01 11.55,-8.52c2.67,-1.11 10.91,-3.04 14.36,-3.61c3.68,-0.56 8.73,0.06 13.62,1.58c0.81,0.25 1.61,0.51 2.42,0.76c-1.56,1.71 -11.71,15.14 -15.84,18.59c-2.68,2.21 -9.44,6.17 -12.19,7.3c-5.61,2.25 -18.53,3.9 -19.71,4.06c-1.62,0.24 -3.07,0.49 -3.97,0.69"/>
   <path id="svg_10" stroke-linejoin="round" stroke-width="14.1" stroke="rgb(76, 156, 204)" fill="none" d="m665.42,95.2c-0.04,0.23 -0.02,0.44 0.04,0.63c0.02,0.49 -2.1,15.95 -2.11,25.14c0.01,6.4 1.77,19.99 3.34,25.83c1.91,6.97 6.93,18.3 9.77,23.4c2.88,5.12 13.59,19.46 16.62,23.06c2.62,3.08 8.16,8.5 11.02,10.73c3.08,2.38 8.56,5.57 11.97,6.97c6.59,2.64 21.57,5.4 28.44,5.62c6.26,0.17 20.27,-1.39 27.41,-3.38c7.52,-2.13 20.1,-7.65 29.38,-12.82c4.85,-2.79 9.93,-6.09 12.56,-8.49c5.95,-5.46 13.9,-15.16 17.41,-20.86c3.23,-5.28 8.49,-16.72 10.3,-22.51c1.84,-5.98 4.16,-19.8 4.25,-25.78c0.03,-2.73 -0.85,-21.66 -1.59,-25.72c-0.49,-2.61 -2.33,-10.76 -3.4,-13.49c-0.82,-2.07 -4.12,-8.75 -5.69,-11.56c-2.79,-4.94 -15.64,-19.5 -19.7,-23.18c-5.77,-5.2 -17.94,-13.03 -25.63,-16.81c-4.16,-1.96 -9.79,-4.16 -12.73,-4.54c-5.33,-0.57 -15.85,-3.97 -24.5,-4.59c-7.12,-0.48 -21.24,0.25 -27.69,1.61c-3.42,0.73 -10.42,3.09 -13.28,4.39c-2.85,1.32 -9.32,5.15 -12.19,7.33c-5.89,4.52 -15.41,15.31 -18.9,20.76c-2.77,4.36 -9.54,18.32 -11.1,22.5c-1.7,6.67 -3.95,15.49 -4,15.76z"/>
   <path id="svg_11" stroke-linejoin="round" stroke-width="14.1" stroke="rgb(76, 156, 204)" fill="none" d="m664.87,93.34c0,0 0.22,1.9 0.22,1.9"/>
   <path id="svg_12" stroke-linejoin="round" stroke-width="14.1" stroke="rgb(76, 156, 204)" fill="none" d="m740.37,213.48c-1.66,-1.36 -13.98,-17.09 -17.96,-23.24c-4.46,-6.94 -13.54,-24.8 -14.74,-29.18c-0.51,-1.9 -0.49,-7.85 -0.18,-11.92c0.28,-3.15 3.17,-11.07 4.63,-13.16c1.74,-2.42 8.17,-8.26 9.29,-9.37c2.57,-2.58 6.45,-8.62 7.46,-11.29c0.94,-2.61 0.1,-7.79 -0.7,-10.04c-0.9,-2.4 -3.69,-5.5 -7.78,-9.42c-20.61,-19.35 -26.08,-25.4 -30.94,-31.86c-0.76,-1 -1.52,-1.99 -2.27,-2.99"/>
   <path id="svg_13" stroke-linejoin="round" stroke-width="14.1" stroke="rgb(76, 156, 204)" fill="none" d="m803.88,38.91c0,0 0.16,0 0.16,0c-2.53,0.1 -4.09,0.39 -6.37,1.32c-8.83,3.61 -19.06,9.12 -24.64,13.24c-2.77,2.06 -6.47,5.68 -8.83,8.7c-5.62,7.28 -11.4,18.15 -13.71,25.18c-1.02,3.15 -2.45,10.72 -2.42,13.41c0.08,3.29 1.97,9.91 3.68,12.12c1.82,2.23 7.14,4.54 13.02,5.87c4.49,1 6.43,1.99 9.23,5c1.72,1.91 3.15,4.45 3.63,6.53c0.72,3.48 -0.47,10.51 -1.79,12.95c-1.18,2.06 -5.24,6.83 -7.54,9.24c-3.15,3.34 -6.77,9.92 -8.34,14.13c-2.22,6.15 -7.64,27.56 -7.96,29.25c-0.85,4.6 -0.7,9.45 -0.06,12.33c1.09,4.51 1.65,5.74 2.89,7.92"/>
   <path id="svg_14" stroke-linejoin="round" stroke-width="14.1" stroke="rgb(76, 156, 204)" fill="none" d="m839.07,90.18c-2.88,-0.07 -4.79,0.11 -5.62,0.7c-0.37,0.26 -5.49,4.94 -9.14,6.99c-5.59,3.08 -14.46,7.29 -14.99,8.41c-0.25,0.57 -1.32,4.74 -1.35,5.64c-0.02,1.97 1.31,4.59 3.05,6.23c0.55,0.5 7,5.3 8.3,7.65c1.12,2.1 2.31,7.21 2.43,10.34c0.08,2.67 -0.61,9.19 -1.48,11.81c-0.86,2.49 -4.8,10.12 -6.57,13.47c-2.2,4.13 -3.8,8.89 -4.18,12.54c-0.84,8.64 -0.26,14.84 0.59,17.29c0.33,0.88 0.65,1.76 0.97,2.63"/>
   <path id="svg_15" stroke-linejoin="round" stroke-width="14.1" stroke="rgb(76, 156, 204)" fill="none" d="m685.38,54.38c0.34,1.42 2.89,8.59 3.59,10.11c0.94,1.98 2.57,4.38 3.83,5.46c1.1,0.92 4.86,3.34 5.9,3.84c0.41,0.19 1.09,0.45 2.06,0.77"/>
  </g>
 </g>
</svg>