<?xml version="1.0" encoding="UTF-8" standalone="no"?>
<!DOCTYPE svg PUBLIC "-//W3C//DTD SVG 1.1//EN" "http://www.w3.org/Graphics/SVG/1.1/DTD/svg11.dtd">
<svg width="419.53" height="283.46" viewBox="0.00 0.00 839.00 567.00" xmlns="http://www.w3.org/2000/svg" xmlns:xlink="http://www.w3.org/1999/xlink">
<g stroke-linecap="round" id="logo_Copy">
<path d="M69.86,150.12 C69.86,150.12 69.86,149.53 69.86,149.53 C70.31,164.58 71.87,201.30 72.03,207.75 C72.20,224.39 72.42,248.50 72.47,255.98 C72.48,264.80 72.49,275.77 72.48,277.93" fill="none" stroke="rgb(211, 91, 166)" stroke-width="14.10" stroke-opacity="1.00" stroke-linejoin="round"/>
<path d="M73.14,259.57 C71.59,259.82 70.76,260.28 69.58,261.79 C62.14,271.00 19.39,317.07 7.04,331.38" fill="none" stroke="rgb(211, 91, 166)" stroke-width="14.10" stroke-opacity="1.00" stroke-linejoin="round"/>
<path d="M6.72,335.52 C6.64,334.82 6.55,334.12 6.46,333.42 C6.37,332.72 6.28,332.02 6.19,331.31" fill="none" stroke="rgb(211, 91, 166)" stroke-width="14.10" stroke-opacity="1.00" stroke-linejoin="round"/>
<path d="M72.48,244.11 C72.33,251.65 72.08,265.68 71.97,272.15 C71.91,287.51 71.97,320.51 72.43,337.34 C72.78,344.48 73.92,358.34 74.31,363.01" fill="none" stroke="rgb(211, 91, 166)" stroke-width="14.10" stroke-opacity="1.00" stroke-linejoin="round"/>
<path d="M70.52,256.92 C70.43,256.94 70.72,257.71 71.38,259.10 C73.72,263.92 79.97,269.36 87.65,275.27 C102.93,286.94 139.82,318.39 143.16,321.26" fill="none" stroke="rgb(211, 91, 166)" stroke-width="14.10" stroke-opacity="1.00" stroke-linejoin="round"/>
<path d="M187.42,182.70 C189.02,183.23 199.03,189.40 204.32,194.07 C208.68,197.95 218.54,208.93 222.28,214.37 C224.66,217.83 234.00,233.17 237.97,239.83 C241.68,246.56 249.16,260.46 251.46,266.38 C253.27,271.09 257.87,288.20 259.73,295.45 C261.58,303.06 265.05,318.88 265.84,325.39 C266.28,329.09 267.30,360.87 267.54,366.08 C269.06,349.90 272.30,316.88 274.59,305.03 C276.99,294.16 280.00,282.93 282.75,275.89 C284.80,270.70 291.36,256.82 295.69,249.32 C301.27,239.92 308.46,229.24 312.43,224.32 C317.13,218.51 325.38,210.68 333.59,203.77 C341.22,197.51 353.19,189.25 360.20,186.23 C362.96,185.08 366.61,183.57 367.49,183.20" fill="none" stroke="rgb(183, 99, 73)" stroke-width="14.10" stroke-opacity="1.00" stroke-linejoin="round"/>
<path d="M286.99,193.27 C287.68,192.81 288.36,192.34 289.04,191.88 C289.04,191.88 290.99,189.47 290.99,189.47 C292.34,186.34 293.52,177.74 293.55,177.55 C293.74,176.29 294.07,173.63 293.85,172.55 C293.55,171.18 291.72,167.06 290.73,165.59 C288.59,162.53 282.44,158.38 278.17,156.68 C274.17,155.13 267.43,153.98 264.22,154.50 C261.05,155.07 255.44,158.31 253.27,160.65 C251.24,162.90 248.34,168.11 247.42,171.04 C246.42,174.43 246.62,179.87 248.24,183.38 C249.21,185.38 253.08,189.87 256.24,192.17 C260.07,194.92 265.84,197.91 268.87,198.20 C271.48,198.41 278.98,198.19 280.67,197.30 C281.68,196.74 285.45,194.29 286.99,193.27 Z" fill="none" stroke="rgb(183, 99, 73)" stroke-width="14.10" stroke-opacity="1.00" stroke-linejoin="round"/>
<path d="M393.70,339.68 C393.70,339.68 392.37,342.45 392.37,342.45 C390.82,340.67 389.47,327.69 389.74,320.04 C389.98,313.62 392.24,298.35 393.83,292.25 C395.87,284.50 401.73,271.13 405.56,266.52 C408.02,263.62 413.65,259.84 416.85,259.15 C420.41,258.46 426.63,259.05 430.70,260.43 C434.11,261.62 440.78,265.18 443.29,266.85 C448.06,270.08 458.23,281.50 461.67,286.77 C463.96,290.28 474.04,307.18 478.00,313.81 C481.73,319.81 490.77,330.48 495.46,333.61 C498.57,335.63 504.05,338.32 507.28,339.14 C510.76,339.98 517.43,340.37 520.80,339.94 C524.32,339.46 530.95,337.80 534.21,336.52 C539.08,334.58 551.87,326.85 557.74,322.44 C564.57,317.28 575.25,307.30 579.93,301.24 C584.23,295.61 590.88,281.66 593.36,273.86 C596.16,264.98 598.22,254.97 598.38,247.39 C598.42,243.87 597.02,236.80 595.48,232.87 C594.09,229.38 590.70,223.58 589.55,221.88 C586.59,217.59 574.65,207.60 570.52,204.74 C564.53,200.63 556.23,196.90 553.18,195.88" fill="none" stroke="rgb(64, 172, 47)" stroke-width="14.10" stroke-opacity="1.00" stroke-linejoin="round"/>
<path d="M451.48,267.64 C451.48,267.64 448.69,268.09 448.69,268.09 C451.91,266.99 455.90,264.30 457.51,261.78 C458.95,259.42 461.39,250.93 461.72,249.92 C462.72,246.84 465.75,241.52 467.95,238.84 C470.15,236.21 475.98,231.83 479.50,230.32 C482.17,229.21 490.41,227.28 493.86,226.71 C497.54,226.15 502.59,226.77 507.48,228.29 C508.29,228.54 509.09,228.80 509.90,229.05 C508.34,230.76 498.19,244.19 494.06,247.64 C491.38,249.85 484.62,253.81 481.87,254.94 C476.26,257.19 463.34,258.84 462.16,259.00 C460.54,259.24 459.09,259.49 458.19,259.69" fill="none" stroke="rgb(64, 172, 47)" stroke-width="14.10" stroke-opacity="1.00" stroke-linejoin="round"/>
<path d="M651.42,235.20 C651.38,235.43 651.40,235.64 651.46,235.83 C651.48,236.32 649.36,251.78 649.35,260.97 C649.36,267.37 651.12,280.96 652.69,286.80 C654.60,293.77 659.62,305.10 662.46,310.20 C665.34,315.32 676.05,329.66 679.08,333.26 C681.70,336.34 687.24,341.76 690.10,343.99 C693.18,346.37 698.66,349.56 702.07,350.96 C708.66,353.60 723.64,356.36 730.51,356.58 C736.77,356.75 750.78,355.19 757.92,353.20 C765.44,351.07 778.02,345.55 787.30,340.38 C792.15,337.59 797.23,334.29 799.86,331.89 C805.81,326.43 813.76,316.73 817.27,311.03 C820.50,305.75 825.76,294.31 827.57,288.52 C829.41,282.54 831.73,268.72 831.82,262.74 C831.85,260.01 830.97,241.08 830.23,237.02 C829.74,234.41 827.90,226.26 826.83,223.53 C826.01,221.46 822.71,214.78 821.14,211.97 C818.35,207.03 805.50,192.47 801.44,188.79 C795.67,183.59 783.50,175.76 775.81,171.98 C771.65,170.02 766.02,167.82 763.08,167.44 C757.75,166.87 747.23,163.47 738.58,162.85 C731.46,162.37 717.34,163.10 710.89,164.46 C707.47,165.19 700.47,167.55 697.61,168.85 C694.76,170.17 688.29,174.00 685.42,176.18 C679.53,180.70 670.01,191.49 666.52,196.94 C663.75,201.30 656.98,215.26 655.42,219.44 C653.72,226.11 651.47,234.93 651.42,235.20 Z" fill="none" stroke="rgb(76, 156, 204)" stroke-width="14.10" stroke-opacity="1.00" stroke-linejoin="round"/>
<path d="M650.87,233.34 C650.87,233.34 651.09,235.24 651.09,235.24" fill="none" stroke="rgb(76, 156, 204)" stroke-width="14.10" stroke-opacity="1.00" stroke-linejoin="round"/>
<path d="M726.37,353.48 C724.71,352.12 712.39,336.39 708.41,330.24 C703.95,323.30 694.87,305.44 693.67,301.06 C693.16,299.16 693.18,293.21 693.49,289.14 C693.77,285.99 696.66,278.07 698.12,275.98 C699.86,273.56 706.29,267.72 707.41,266.61 C709.98,264.03 713.86,257.99 714.87,255.32 C715.81,252.71 714.97,247.53 714.17,245.28 C713.27,242.88 710.48,239.78 706.39,235.86 C685.78,216.51 680.31,210.46 675.45,204.00 C674.69,203.00 673.93,202.01 673.18,201.01" fill="none" stroke="rgb(76, 156, 204)" stroke-width="14.10" stroke-opacity="1.00" stroke-linejoin="round"/>
<path d="M789.88,178.91 C789.88,178.91 790.04,178.91 790.04,178.91 C787.51,179.01 785.95,179.30 783.67,180.23 C774.84,183.84 764.61,189.35 759.03,193.47 C756.26,195.53 752.56,199.15 750.20,202.17 C744.58,209.45 738.80,220.32 736.49,227.35 C735.47,230.50 734.04,238.07 734.07,240.76 C734.15,244.05 736.04,250.67 737.75,252.88 C739.57,255.11 744.89,257.42 750.77,258.75 C755.26,259.75 757.20,260.74 760.00,263.75 C761.72,265.66 763.15,268.20 763.63,270.28 C764.35,273.76 763.16,280.79 761.84,283.23 C760.66,285.29 756.60,290.06 754.30,292.47 C751.15,295.81 747.53,302.39 745.96,306.60 C743.74,312.75 738.32,334.16 738.00,335.85 C737.15,340.45 737.30,345.30 737.94,348.18 C739.03,352.69 739.59,353.92 740.83,356.10" fill="none" stroke="rgb(76, 156, 204)" stroke-width="14.10" stroke-opacity="1.00" stroke-linejoin="round"/>
<path d="M825.07,230.18 C822.19,230.11 820.28,230.29 819.45,230.88 C819.08,231.14 813.96,235.82 810.31,237.87 C804.72,240.95 795.85,245.16 795.32,246.28 C795.07,246.85 794.00,251.02 793.97,251.92 C793.95,253.89 795.28,256.51 797.02,258.15 C797.57,258.65 804.02,263.45 805.32,265.80 C806.44,267.90 807.63,273.01 807.75,276.14 C807.83,278.81 807.14,285.33 806.27,287.95 C805.41,290.44 801.47,298.07 799.70,301.42 C797.50,305.55 795.90,310.31 795.52,313.96 C794.68,322.60 795.26,328.80 796.11,331.25 C796.44,332.13 796.76,333.01 797.08,333.88" fill="none" stroke="rgb(76, 156, 204)" stroke-width="14.10" stroke-opacity="1.00" stroke-linejoin="round"/>
<path d="M671.38,194.38 C671.72,195.80 674.27,202.97 674.97,204.49 C675.91,206.47 677.54,208.87 678.80,209.95 C679.90,210.87 683.66,213.29 684.70,213.79 C685.11,213.98 685.79,214.24 686.76,214.56" fill="none" stroke="rgb(76, 156, 204)" stroke-width="14.10" stroke-opacity="1.00" stroke-linejoin="round"/>
</g>
</svg>
